<mxfile host="65bd71144e">
    <diagram id="ylXF4ttFyIIcXq2Gl7mP" name="PÃ¡gina-1">
        <mxGraphModel dx="883" dy="615" grid="1" gridSize="10" guides="1" tooltips="1" connect="1" arrows="1" fold="1" page="1" pageScale="1" pageWidth="827" pageHeight="1169" math="0" shadow="0">
            <root>
                <mxCell id="0"/>
                <mxCell id="1" parent="0"/>
                <mxCell id="3" style="edgeStyle=none;html=1;fontSize=18;entryX=0.5;entryY=0;entryDx=0;entryDy=0;fillColor=#cdeb8b;shadow=1;strokeColor=#36393d;fontColor=#bf3131;" edge="1" parent="1" source="2" target="4">
                    <mxGeometry relative="1" as="geometry">
                        <mxPoint x="580" y="170" as="targetPoint"/>
                    </mxGeometry>
                </mxCell>
                <mxCell id="2" value="&lt;font size=&quot;3&quot;&gt;inicio&lt;/font&gt;" style="ellipse;whiteSpace=wrap;html=1;fillColor=#cdeb8b;shadow=1;strokeColor=#36393d;fontColor=#bf3131;" vertex="1" parent="1">
                    <mxGeometry x="520" y="80" width="120" height="80" as="geometry"/>
                </mxCell>
                <mxCell id="5" style="edgeStyle=none;html=1;fontSize=18;entryX=0.5;entryY=0;entryDx=0;entryDy=0;fillColor=#cdeb8b;shadow=1;strokeColor=#36393d;fontColor=#bf3131;" edge="1" parent="1" source="4" target="6">
                    <mxGeometry relative="1" as="geometry">
                        <mxPoint x="580" y="260" as="targetPoint"/>
                    </mxGeometry>
                </mxCell>
                <mxCell id="4" value="h" style="shape=parallelogram;perimeter=parallelogramPerimeter;whiteSpace=wrap;html=1;fixedSize=1;fontSize=18;fillColor=#cdeb8b;shadow=1;strokeColor=#36393d;fontColor=#bf3131;" vertex="1" parent="1">
                    <mxGeometry x="520" y="190" width="120" height="60" as="geometry"/>
                </mxCell>
                <mxCell id="7" style="edgeStyle=none;html=1;fontSize=18;fillColor=#cdeb8b;shadow=1;strokeColor=#36393d;fontColor=#bf3131;" edge="1" parent="1" source="6">
                    <mxGeometry relative="1" as="geometry">
                        <mxPoint x="580" y="370" as="targetPoint"/>
                    </mxGeometry>
                </mxCell>
                <mxCell id="6" value="q=h/5&lt;br&gt;n=0" style="rounded=0;whiteSpace=wrap;html=1;fontSize=18;fillColor=#cdeb8b;shadow=1;strokeColor=#36393d;fontColor=#bf3131;" vertex="1" parent="1">
                    <mxGeometry x="520" y="280" width="120" height="60" as="geometry"/>
                </mxCell>
                <mxCell id="9" style="edgeStyle=none;html=1;fontSize=18;fillColor=#cdeb8b;shadow=1;strokeColor=#36393d;fontColor=#bf3131;" edge="1" parent="1" source="8">
                    <mxGeometry relative="1" as="geometry">
                        <mxPoint x="680" y="440" as="targetPoint"/>
                        <Array as="points">
                            <mxPoint x="680" y="410"/>
                        </Array>
                    </mxGeometry>
                </mxCell>
                <mxCell id="16" style="edgeStyle=none;html=1;fontSize=18;fillColor=#cdeb8b;shadow=1;strokeColor=#36393d;fontColor=#bf3131;" edge="1" parent="1" source="8">
                    <mxGeometry relative="1" as="geometry">
                        <mxPoint x="580" y="490" as="targetPoint"/>
                    </mxGeometry>
                </mxCell>
                <mxCell id="8" value="h&amp;gt;=q" style="rhombus;whiteSpace=wrap;html=1;fontSize=18;fillColor=#cdeb8b;shadow=1;strokeColor=#36393d;fontColor=#bf3131;" vertex="1" parent="1">
                    <mxGeometry x="540" y="370" width="80" height="80" as="geometry"/>
                </mxCell>
                <mxCell id="12" style="edgeStyle=none;html=1;fontSize=18;fillColor=#cdeb8b;shadow=1;strokeColor=#36393d;fontColor=#bf3131;" edge="1" parent="1" source="10">
                    <mxGeometry relative="1" as="geometry">
                        <mxPoint x="680" y="510" as="targetPoint"/>
                    </mxGeometry>
                </mxCell>
                <mxCell id="10" value="n" style="shape=document;whiteSpace=wrap;html=1;boundedLbl=1;fontSize=18;fillColor=#cdeb8b;shadow=1;strokeColor=#36393d;fontColor=#bf3131;" vertex="1" parent="1">
                    <mxGeometry x="650" y="440" width="60" height="40" as="geometry"/>
                </mxCell>
                <mxCell id="13" value="fin" style="ellipse;whiteSpace=wrap;html=1;fontSize=18;fillColor=#cdeb8b;shadow=1;strokeColor=#36393d;fontColor=#bf3131;" vertex="1" parent="1">
                    <mxGeometry x="640" y="510" width="80" height="50" as="geometry"/>
                </mxCell>
                <mxCell id="20" style="edgeStyle=none;html=1;fontSize=18;fillColor=#cdeb8b;shadow=1;strokeColor=#36393d;fontColor=#bf3131;" edge="1" parent="1" source="17">
                    <mxGeometry relative="1" as="geometry">
                        <mxPoint x="580" y="350" as="targetPoint"/>
                        <Array as="points">
                            <mxPoint x="580" y="600"/>
                            <mxPoint x="460" y="600"/>
                            <mxPoint x="460" y="350"/>
                        </Array>
                    </mxGeometry>
                </mxCell>
                <mxCell id="17" value="h=0.9*h&lt;br&gt;n=n+1" style="rounded=0;whiteSpace=wrap;html=1;fontSize=18;fillColor=#cdeb8b;shadow=1;strokeColor=#36393d;fontColor=#bf3131;" vertex="1" parent="1">
                    <mxGeometry x="540" y="490" width="80" height="60" as="geometry"/>
                </mxCell>
            </root>
        </mxGraphModel>
    </diagram>
</mxfile>